<?xml version="1.0" standalone="no"?>
<!DOCTYPE svg PUBLIC "-//W3C//DTD SVG 20010904//EN"
 "http://www.w3.org/TR/2001/REC-SVG-20010904/DTD/svg10.dtd">
<svg version="1.0" xmlns="http://www.w3.org/2000/svg"
 width="400.000000pt" height="400.000000pt" viewBox="0 0 400.000000 400.000000"
 preserveAspectRatio="xMidYMid meet">
<metadata>
Created by potrace 1.11, written by Peter Selinger 2001-2013
</metadata>
<g transform="translate(0.000000,400.000000) scale(0.100000,-0.100000)"
fill="#000000" stroke="none">
<path d="M1597 3624 c-1 -1 -49 -5 -107 -8 -58 -4 -132 -9 -165 -12 -33 -4
-76 -7 -95 -8 -19 0 -37 -4 -40 -7 -3 -3 -34 -11 -70 -17 -59 -10 -108 -20
-135 -26 -5 -2 -23 -6 -40 -10 -44 -11 -187 -55 -210 -65 -39 -17 -70 -28 -80
-30 -19 -4 -190 -95 -196 -104 -3 -5 -10 -9 -15 -9 -28 -2 -172 -114 -247
-191 -47 -49 -135 -176 -129 -185 2 -3 0 -8 -5 -11 -5 -3 -16 -24 -25 -46 -17
-43 -18 -47 -18 -71 0 -9 -5 -12 -12 -8 -8 5 -7 0 2 -11 9 -11 10 -16 2 -11
-9 6 -12 -20 -12 -117 0 -68 3 -127 8 -131 4 -4 7 -15 7 -24 1 -9 7 -28 15
-42 7 -14 13 -27 13 -30 -2 -18 59 -140 70 -140 4 0 7 -5 7 -12 0 -57 284
-323 430 -404 19 -10 37 -22 40 -25 7 -8 257 -130 273 -133 6 -1 23 -8 37 -16
14 -7 25 -12 25 -11 0 2 18 -4 39 -13 22 -9 51 -19 65 -23 14 -3 31 -9 36 -13
6 -4 17 -7 25 -8 8 0 47 -10 85 -21 39 -12 79 -23 90 -25 11 -2 39 -9 63 -14
23 -5 42 -8 42 -5 0 3 6 1 13 -5 7 -6 25 -9 40 -6 15 2 27 0 27 -6 0 -5 3 -9
8 -9 4 1 9 1 12 0 3 -1 23 -4 45 -6 22 -2 54 -6 70 -9 17 -3 75 -8 130 -11 55
-4 106 -8 113 -10 6 -3 12 -1 12 4 0 5 -46 20 -102 35 -57 15 -112 29 -123 32
-11 3 -32 8 -47 11 -16 3 -28 8 -28 12 0 4 -9 7 -20 8 -10 1 -34 8 -52 16 -18
8 -55 23 -83 32 -95 35 -339 164 -357 189 -5 7 -8 7 -8 1 0 -7 -3 -7 -8 0 -4
6 -25 24 -47 40 -101 75 -207 181 -260 260 -22 33 -43 62 -46 65 -7 7 -52 118
-48 122 1 2 -3 14 -10 27 -26 49 -32 263 -8 288 4 3 7 14 7 22 0 25 67 159
102 205 49 63 139 147 204 191 32 22 61 43 64 46 3 3 46 25 95 50 50 24 93 49
97 54 4 6 8 7 8 3 0 -4 30 6 68 21 37 15 73 26 80 24 6 -3 12 0 12 6 0 6 11
11 25 11 14 0 25 4 25 9 0 5 7 8 16 7 9 -1 46 6 82 15 35 10 81 21 101 24 20
3 48 8 61 10 14 3 52 8 85 12 33 3 68 10 78 15 12 6 17 5 17 -4 0 -9 3 -9 8
-2 4 6 46 10 104 10 54 -1 98 1 98 4 0 3 18 5 40 5 22 0 40 -2 40 -5 0 -3 9
-6 20 -6 11 0 20 4 20 9 0 4 4 6 9 3 5 -3 56 -8 112 -11 57 -4 120 -8 139 -10
19 -3 49 -5 67 -6 18 -1 31 -5 29 -8 -2 -3 12 -7 32 -7 37 -1 103 -11 134 -20
9 -3 27 -7 40 -9 13 -3 37 -8 53 -12 17 -4 35 -8 40 -9 6 0 17 -3 25 -6 110
-36 109 -36 115 -20 3 8 4 16 3 16 -3 2 -167 76 -223 102 -41 18 -138 56 -150
58 -5 1 -19 7 -30 13 -11 6 -24 12 -30 12 -5 1 -40 10 -76 21 -36 11 -74 20
-83 20 -10 0 -15 4 -12 9 3 4 -5 7 -17 7 -12 -1 -28 2 -34 7 -7 5 -13 7 -13 4
0 -3 -17 -1 -37 4 -78 19 -76 19 -198 36 -42 5 -101 11 -160 14 -27 1 -58 6
-67 11 -10 5 -19 4 -23 -2 -3 -5 -12 -7 -20 -4 -13 5 -174 12 -178 8z"/>
<path d="M2950 3281 c0 -5 8 -11 18 -15 9 -3 23 -9 30 -12 6 -3 12 -1 12 6 0
6 -5 8 -10 5 -6 -3 -13 1 -16 9 -6 17 -34 22 -34 7z"/>
<path d="M2145 2541 c5 -8 56 -23 87 -25 9 -1 19 -4 23 -8 4 -4 13 -4 21 -1 8
3 14 1 14 -4 0 -5 6 -10 13 -11 6 0 22 -3 35 -6 15 -3 21 -1 17 7 -4 7 0 4 8
-5 8 -10 26 -18 41 -18 14 0 26 -4 26 -8 0 -5 7 -9 15 -10 8 -1 22 -3 30 -4 8
-1 15 -6 15 -12 0 -6 5 -4 10 4 6 10 10 11 10 3 0 -7 9 -13 20 -13 11 0 20 -5
20 -11 0 -6 9 -8 21 -4 13 5 19 3 15 -3 -3 -5 1 -12 9 -16 8 -3 15 0 15 7 0 7
4 6 10 -3 5 -8 13 -16 17 -16 26 -5 53 -18 53 -25 0 -5 12 -9 26 -9 17 0 23
-4 18 -12 -5 -8 -2 -9 9 -5 9 3 23 0 31 -8 8 -8 19 -15 25 -15 6 0 11 -5 11
-12 0 -6 12 -1 27 13 19 16 22 17 11 4 -16 -20 -16 -21 5 -35 12 -8 28 -13 36
-11 7 1 10 -2 6 -8 -3 -6 1 -11 9 -11 9 0 16 -5 16 -11 0 -6 7 -9 15 -5 8 3
14 1 12 -3 -1 -5 2 -9 7 -9 5 0 12 -6 17 -13 6 -10 11 -10 26 1 15 12 16 12 6
0 -14 -16 -17 -31 -5 -29 20 3 32 -2 26 -13 -4 -6 -3 -8 3 -5 6 4 14 0 17 -9
4 -9 9 -14 13 -11 3 4 18 -7 34 -24 17 -18 33 -28 40 -23 7 4 9 3 6 -2 -3 -6
10 -25 29 -43 18 -18 31 -38 28 -43 -4 -6 3 -5 15 1 17 10 20 9 15 -4 -4 -9 1
-17 11 -21 12 -5 13 -9 5 -14 -9 -5 -6 -10 9 -15 11 -3 24 -17 27 -30 4 -16
11 -22 22 -18 11 5 13 3 7 -7 -5 -8 -3 -17 6 -24 20 -16 47 -51 32 -42 -7 4
-13 2 -13 -3 0 -6 4 -11 9 -11 9 0 24 -38 22 -53 -1 -5 4 -5 10 -1 9 5 10 2 6
-9 -3 -10 -2 -17 3 -17 6 0 10 -15 10 -34 0 -19 5 -38 10 -41 6 -3 10 -26 10
-51 0 -28 4 -43 10 -39 13 8 8 -17 -5 -27 -6 -5 -5 -11 4 -17 12 -8 12 -12 2
-25 -7 -9 -11 -27 -9 -41 3 -14 1 -25 -4 -25 -5 0 -6 -5 -3 -10 4 -6 12 -8 18
-4 7 3 4 -1 -5 -9 -10 -8 -15 -17 -11 -20 3 -4 1 -7 -7 -7 -10 0 -10 -3 0 -16
8 -8 9 -14 4 -13 -21 4 -26 -2 -13 -18 10 -11 10 -14 2 -9 -12 6 -18 -5 -14
-26 0 -5 -4 -8 -10 -8 -5 0 -7 -4 -4 -10 3 -5 0 -10 -7 -10 -9 0 -9 -3 2 -10
13 -8 12 -10 -4 -10 -11 0 -16 -5 -13 -14 3 -8 -2 -16 -15 -19 -11 -3 -17 -10
-13 -16 3 -6 1 -11 -5 -11 -8 0 -10 -10 -6 -28 5 -19 4 -23 -3 -12 -8 12 -13
12 -23 2 -10 -10 -10 -15 2 -23 12 -8 11 -9 -5 -7 -14 2 -20 -2 -19 -14 1 -10
-4 -14 -12 -11 -9 3 -14 -1 -14 -12 0 -9 -4 -13 -10 -10 -5 3 -10 1 -10 -5 0
-6 -4 -8 -10 -5 -6 4 -7 -1 -3 -12 3 -10 3 -15 -2 -11 -4 4 -14 3 -22 -3 -16
-14 -18 -33 -1 -23 7 4 8 3 4 -5 -6 -9 -11 -9 -22 0 -11 9 -15 8 -20 -5 -3 -9
-9 -14 -13 -13 -3 2 -17 -8 -31 -21 -14 -14 -19 -21 -11 -17 9 5 12 4 7 -3 -4
-6 -13 -9 -20 -6 -7 3 -19 -2 -26 -11 -7 -8 -19 -15 -27 -15 -8 0 -11 -5 -7
-12 5 -8 2 -9 -9 -5 -10 3 -17 2 -17 -3 0 -6 -6 -10 -14 -10 -7 0 -19 -7 -26
-15 -7 -9 -15 -13 -18 -10 -3 2 -11 -3 -18 -13 -11 -14 -13 -14 -14 -2 0 12
-2 12 -9 2 -4 -7 -17 -15 -27 -16 -10 -2 -18 -9 -16 -17 2 -9 -1 -9 -14 2 -16
12 -17 12 -11 -3 4 -12 1 -16 -12 -13 -10 2 -30 -3 -44 -10 -14 -7 -29 -10
-33 -7 -4 4 -3 1 1 -7 6 -11 4 -13 -8 -8 -21 8 -49 -2 -41 -14 3 -5 -2 -6 -11
-3 -8 4 -21 2 -28 -3 -6 -5 -28 -10 -47 -12 -19 -2 -41 -8 -48 -13 -7 -6 -15
-8 -19 -4 -3 3 -15 -2 -26 -11 -15 -13 -18 -14 -12 -3 7 12 6 13 -6 4 -8 -6
-22 -10 -31 -9 -10 2 -18 -2 -18 -8 0 -7 -5 -5 -10 3 -6 10 -10 11 -10 3 0 -8
-11 -11 -31 -9 -20 2 -29 0 -26 -8 3 -8 -8 -10 -35 -7 -27 2 -43 -1 -49 -10
-7 -12 -9 -11 -9 1 0 13 -1 13 -10 0 -9 -13 -11 -13 -20 0 -7 11 -10 11 -10 2
0 -7 -8 -12 -17 -11 -52 5 -104 -2 -97 -13 5 -7 3 -8 -7 -2 -20 12 -82 13 -96
1 -9 -6 -13 -6 -13 2 0 6 -5 11 -11 11 -5 0 -8 -4 -5 -8 2 -4 -4 -8 -15 -8
-10 0 -19 3 -19 6 0 9 -38 6 -46 -3 -4 -4 -13 -2 -20 4 -9 7 -19 7 -33 -1 -12
-6 -21 -7 -21 -3 0 10 -76 10 -86 1 -4 -5 -12 -8 -18 -8 -6 0 -5 4 2 9 12 7
-52 14 -121 13 -11 -1 -15 4 -10 11 5 9 3 9 -8 0 -12 -10 -18 -10 -29 0 -10
10 -11 9 -5 -3 6 -12 5 -13 -6 -3 -16 16 -43 17 -33 2 3 -6 -4 -4 -18 5 -13 9
-34 14 -46 11 -12 -2 -22 0 -22 4 0 9 -55 5 -70 -4 -5 -3 -12 0 -16 6 -4 7 -3
9 2 6 6 -3 16 -2 24 3 10 6 6 8 -15 6 -17 -1 -36 2 -44 8 -12 9 -13 8 -6 -4 6
-12 5 -13 -6 -2 -7 6 -23 12 -35 12 -13 0 -26 5 -29 10 -4 7 -13 6 -27 -1 -11
-6 -18 -7 -14 -1 6 10 -22 22 -60 26 -11 2 -26 6 -32 10 -10 6 -20 9 -67 19
-5 2 -17 7 -25 12 -13 8 -13 7 -1 -8 7 -9 17 -14 22 -11 5 3 9 2 9 -3 0 -9 48
-33 66 -33 7 0 14 -5 16 -10 2 -6 13 -12 26 -13 12 0 22 -5 22 -9 0 -4 7 -8
15 -8 8 0 15 -5 15 -12 0 -6 3 -8 7 -5 3 4 17 0 31 -9 13 -8 26 -13 29 -10 3
3 12 -2 20 -10 8 -8 19 -12 24 -9 5 4 9 2 9 -4 0 -5 9 -8 20 -6 12 2 20 -2 20
-9 0 -18 38 -15 51 4 8 12 9 10 4 -7 -5 -17 -2 -23 9 -23 9 0 16 -4 16 -8 0
-13 30 -10 30 2 0 6 5 3 10 -6 9 -14 58 -32 76 -28 4 1 11 -4 15 -12 7 -10 9
-10 9 2 1 12 2 12 10 -2 7 -11 20 -15 40 -13 18 3 28 0 25 -5 -4 -6 7 -10 24
-10 16 0 33 -4 36 -10 3 -5 11 -10 17 -10 7 0 6 5 -1 14 -9 11 -9 16 0 22 7 4
9 3 6 -3 -8 -13 16 -35 34 -31 8 2 13 -2 12 -7 -1 -6 17 -9 43 -8 25 2 43 -1
40 -5 -2 -4 10 -8 27 -8 37 -1 82 -10 97 -19 5 -3 10 0 10 7 0 9 3 9 10 -2 7
-11 10 -11 10 -2 0 8 5 10 13 5 18 -11 71 -11 79 1 5 7 8 3 8 -9 0 -17 2 -17
10 -5 6 10 10 11 10 3 0 -7 5 -13 11 -13 5 0 7 5 3 11 -4 7 1 7 16 -1 12 -7
20 -8 17 -3 -3 5 3 9 14 9 10 0 19 -3 19 -6 0 -11 34 -8 49 4 12 9 13 8 6 -3
-6 -11 -4 -13 8 -8 10 4 17 1 17 -6 0 -7 3 -8 8 -2 4 6 18 10 32 10 15 0 24 5
22 13 -1 8 2 11 8 7 6 -3 8 -11 5 -16 -4 -5 8 -9 25 -9 22 0 29 4 24 12 -6 10
-4 10 7 2 12 -9 37 -10 101 -5 12 1 16 7 12 18 -3 10 2 7 10 -7 8 -14 15 -19
16 -11 0 10 3 11 14 2 8 -7 17 -8 20 -3 3 5 16 9 28 8 13 -1 32 5 42 13 18 15
19 15 13 -1 -8 -23 2 -23 20 -1 8 10 12 13 9 8 -2 -6 4 -11 15 -11 13 0 18 5
14 15 -4 10 -2 11 8 3 7 -6 26 -9 43 -5 16 3 40 6 54 7 14 0 30 4 37 9 6 4 14
1 16 -5 4 -9 6 -8 6 3 1 11 10 15 33 13 37 -3 60 5 52 17 -3 5 7 4 21 -1 14
-5 24 -6 21 -1 -3 5 1 12 10 15 10 4 13 2 8 -7 -5 -9 -4 -9 6 0 7 6 19 9 26 6
9 -3 14 2 15 13 0 11 3 14 5 7 4 -8 13 -9 29 -3 12 5 26 6 31 2 4 -4 4 -2 1 4
-4 7 0 15 9 18 8 3 13 2 9 -3 -7 -12 58 11 67 24 4 6 8 7 8 3 0 -4 13 -2 30 3
16 6 28 14 26 18 -3 4 4 8 15 9 10 1 28 3 38 4 11 1 17 6 15 10 -3 5 8 11 25
14 17 4 31 11 31 16 0 5 5 6 10 3 6 -3 10 2 10 12 0 14 2 15 9 4 6 -9 11 -10
15 -2 4 6 12 9 17 5 5 -3 8 0 7 8 -2 7 3 12 11 10 9 -2 11 3 7 14 -6 14 -4 15
10 4 13 -12 17 -11 24 0 5 8 6 18 3 24 -3 5 -1 6 4 3 6 -4 22 -1 35 6 63 33
208 164 208 189 0 11 2 10 9 -1 7 -11 10 -9 16 8 3 11 4 25 1 30 -3 5 3 7 14
4 13 -4 20 0 20 9 0 8 8 23 18 34 9 11 18 26 20 34 2 8 9 18 15 22 7 4 8 8 3
8 -5 0 -3 7 5 16 10 13 10 17 -2 26 -11 8 -11 9 3 4 13 -4 19 2 24 22 4 15 12
33 18 41 9 12 8 13 -4 6 -12 -7 -13 -6 -3 6 6 8 13 26 15 39 2 14 6 30 9 35 5
9 4 190 -1 190 -1 0 -3 11 -4 24 -2 13 -11 28 -20 33 -12 7 -14 13 -7 22 7 8
6 20 -4 39 -8 15 -11 27 -8 27 3 0 -2 10 -13 22 -10 12 -13 18 -5 13 9 -5 7 1
-4 19 -9 14 -21 23 -26 20 -5 -3 -6 2 -3 10 5 12 -25 67 -47 86 -3 3 -8 13
-12 23 -3 9 -14 17 -24 17 -15 0 -16 2 -3 10 12 8 10 10 -10 11 -14 0 -20 3
-13 5 7 3 -5 22 -30 48 -23 24 -45 41 -49 39 -5 -2 -8 4 -8 13 0 10 -2 15 -5
12 -3 -3 -24 12 -46 34 -34 34 -42 38 -57 27 -14 -11 -15 -11 -5 0 15 17 -10
46 -32 37 -9 -3 -12 0 -9 8 3 8 -7 19 -25 27 -17 8 -31 17 -31 21 0 5 -9 8
-21 8 -11 0 -18 4 -15 9 3 5 -9 16 -27 25 -17 9 -45 25 -62 35 -16 10 -36 16
-44 13 -8 -3 -12 -1 -8 5 6 9 -26 27 -45 24 -3 0 -12 6 -18 14 -7 8 -23 15
-37 15 -15 0 -22 4 -17 11 4 8 -1 9 -16 4 -15 -5 -20 -4 -16 4 4 6 -5 13 -21
17 -15 4 -33 11 -39 16 -7 5 -26 10 -43 11 -17 1 -33 8 -36 15 -2 6 -18 12
-35 12 -16 0 -30 4 -30 9 0 5 -11 8 -25 7 -13 -2 -22 1 -19 5 8 14 -30 11 -46
-3 -12 -11 -12 -10 -2 3 16 21 6 29 -35 29 -19 0 -32 4 -28 9 3 6 -4 8 -16 6
-13 -3 -28 0 -36 6 -7 6 -20 9 -28 5 -8 -3 -15 -1 -15 5 0 6 -7 6 -20 -1 -15
-8 -18 -8 -14 3 3 9 -2 13 -18 12 -13 -1 -29 3 -37 9 -12 9 -13 8 -6 -4 7 -12
6 -13 -6 -3 -23 19 -79 24 -86 7 -3 -8 -10 -14 -16 -14 -7 0 -7 4 1 12 19 19
14 28 -10 24 -13 -2 -29 1 -35 6 -9 7 -13 7 -13 -1 0 -9 -5 -9 -21 -1 -11 7
-23 9 -26 6 -4 -3 -13 0 -21 7 -13 9 -14 9 -8 0 4 -7 3 -13 -3 -13 -5 0 -11 6
-14 13 -3 9 -7 9 -19 0 -11 -9 -17 -10 -26 -1 -15 15 -62 17 -62 3 0 -5 -5 -3
-10 5 -9 13 -10 13 -10 0 0 -13 -1 -13 -10 0 -5 8 -10 12 -10 8 0 -4 -14 -3
-30 2 -17 5 -28 5 -25 1z m485 -97 c0 -8 -19 -13 -24 -6 -3 5 1 9 9 9 8 0 15
-2 15 -3z m460 -108 c0 -2 -8 -10 -17 -17 -16 -13 -17 -12 -4 4 13 16 21 21
21 13z m-156 -14 c3 -5 -1 -9 -9 -9 -8 0 -15 4 -15 9 0 4 4 8 9 8 6 0 12 -4
15 -8z m197 -39 c13 -16 12 -17 -3 -4 -17 13 -22 21 -14 21 2 0 10 -8 17 -17z
m35 -118 c-1 -8 -5 -17 -8 -21 -5 -4 -4 16 1 34 3 9 9 -1 7 -13z m-31 -5 c3
-6 -1 -7 -9 -4 -18 7 -21 14 -7 14 6 0 13 -4 16 -10z m109 -90 c-6 -6 -10 -3
-10 10 0 13 4 16 10 10 7 -7 7 -13 0 -20z m207 13 c13 -16 12 -17 -3 -4 -17
13 -22 21 -14 21 2 0 10 -8 17 -17z m35 2 c-1 -8 -5 -17 -8 -21 -5 -4 -4 16 1
34 3 9 9 -1 7 -13z m-22 -163 c3 -5 -1 -9 -9 -9 -8 0 -12 4 -9 9 3 4 7 8 9 8
2 0 6 -4 9 -8z m107 -79 c13 -16 12 -17 -3 -4 -17 13 -22 21 -14 21 2 0 10 -8
17 -17z m79 -147 c0 -2 -8 -10 -17 -17 -16 -13 -17 -12 -4 4 13 16 21 21 21
13z m161 -53 c13 -16 12 -17 -3 -4 -17 13 -22 21 -14 21 2 0 10 -8 17 -17z
m-286 -42 c3 -5 2 -12 -3 -15 -5 -3 -9 1 -9 9 0 17 3 19 12 6z m11 -43 c3 -4
-1 -5 -10 -4 -8 1 -18 5 -22 8 -3 4 1 5 10 4 8 -1 18 -5 22 -8z m115 -35 c13
-16 12 -17 -3 -4 -17 13 -22 21 -14 21 2 0 10 -8 17 -17z m233 -13 c-6 -6 -10
-3 -10 10 0 13 4 16 10 10 7 -7 7 -13 0 -20z m41 10 c3 -5 1 -10 -4 -10 -6 0
-11 5 -11 10 0 6 2 10 4 10 3 0 8 -4 11 -10z m-385 -34 c0 -2 -8 -10 -17 -17
-16 -13 -17 -12 -4 4 13 16 21 21 21 13z m301 -93 c13 -16 12 -17 -3 -4 -17
13 -22 21 -14 21 2 0 10 -8 17 -17z m-357 -43 c-6 -6 -10 -3 -10 10 0 13 4 16
10 10 7 -7 7 -13 0 -20z m486 26 c0 -2 -8 -10 -17 -17 -16 -13 -17 -12 -4 4
13 16 21 21 21 13z m-440 -10 c0 -3 -4 -8 -10 -11 -5 -3 -10 -1 -10 4 0 6 5
11 10 11 6 0 10 -2 10 -4z m124 -4 c3 -5 -1 -9 -9 -9 -8 0 -12 4 -9 9 3 4 7 8
9 8 2 0 6 -4 9 -8z m-4 -26 c0 -2 -8 -10 -17 -17 -16 -13 -17 -12 -4 4 13 16
21 21 21 13z m-209 -103 c13 -16 12 -17 -3 -4 -10 7 -18 15 -18 17 0 8 8 3 21
-13z m414 8 c-9 -8 -36 -10 -30 -2 2 4 11 8 20 8 8 0 13 -3 10 -6z m-10 -30
c3 -5 2 -12 -3 -15 -5 -3 -9 1 -9 9 0 17 3 19 12 6z m-495 -11 c0 -5 -2 -10
-4 -10 -3 0 -8 5 -11 10 -3 6 -1 10 4 10 6 0 11 -4 11 -10z m371 -7 c13 -16
12 -17 -3 -4 -17 13 -22 21 -14 21 2 0 10 -8 17 -17z m-111 -17 c0 -2 -8 -10
-17 -17 -16 -13 -17 -12 -4 4 13 16 21 21 21 13z m-190 -50 c0 -2 -8 -10 -17
-17 -16 -13 -17 -12 -4 4 13 16 21 21 21 13z m435 -45 c-9 -8 -36 -10 -30 -2
2 4 11 8 20 8 8 0 13 -3 10 -6z m-4 -38 c13 -16 12 -17 -3 -4 -10 7 -18 15
-18 17 0 8 8 3 21 -13z m-561 -3 c0 -5 -5 -10 -11 -10 -5 0 -7 5 -4 10 3 6 8
10 11 10 2 0 4 -4 4 -10z m431 -7 c13 -16 12 -17 -3 -4 -17 13 -22 21 -14 21
2 0 10 -8 17 -17z m-427 -31 c2 -4 -4 -8 -14 -8 -10 0 -16 4 -14 8 3 4 9 8 14
8 5 0 11 -4 14 -8z m447 -15 c-10 -9 -11 -8 -5 6 3 10 9 15 12 12 3 -3 0 -11
-7 -18z m-365 -69 c3 -4 -1 -5 -10 -4 -8 1 -18 5 -22 8 -3 4 1 5 10 4 8 -1 18
-5 22 -8z m334 -12 c0 -3 -4 -8 -10 -11 -5 -3 -10 -1 -10 4 0 6 5 11 10 11 6
0 10 -2 10 -4z m-210 -20 c0 -2 -8 -10 -17 -17 -16 -13 -17 -12 -4 4 13 16 21
21 21 13z m-535 -25 c3 -5 2 -12 -3 -15 -5 -3 -9 1 -9 9 0 17 3 19 12 6z m46
-18 c13 -16 12 -17 -3 -4 -17 13 -22 21 -14 21 2 0 10 -8 17 -17z m597 -8 c-3
-3 -9 2 -12 12 -6 14 -5 15 5 6 7 -7 10 -15 7 -18z m39 10 c0 -8 -4 -12 -9 -9
-5 3 -6 10 -3 15 9 13 12 11 12 -6z m-267 1 c0 -2 -8 -10 -17 -17 -16 -13 -17
-12 -4 4 13 16 21 21 21 13z m-336 -56 c-6 -6 -10 -3 -10 10 0 13 4 16 10 10
7 -7 7 -13 0 -20z m42 10 c0 -12 -4 -16 -9 -11 -5 5 -6 14 -3 20 10 15 12 14
12 -9z m78 -10 c-6 -6 -10 -3 -10 10 0 13 4 16 10 10 7 -7 7 -13 0 -20z m-224
16 c0 -2 -8 -10 -17 -17 -16 -13 -17 -12 -4 4 13 16 21 21 21 13z m265 -6 c3
-5 1 -10 -4 -10 -6 0 -11 5 -11 10 0 6 2 10 4 10 3 0 8 -4 11 -10z m165 4 c0
-8 -19 -13 -24 -6 -3 5 1 9 9 9 8 0 15 -2 15 -3z m120 -28 c0 -2 -8 -10 -17
-17 -16 -13 -17 -12 -4 4 13 16 21 21 21 13z m41 -13 c13 -16 12 -17 -3 -4
-17 13 -22 21 -14 21 2 0 10 -8 17 -17z m-1037 -81 c2 -4 -4 -8 -14 -8 -10 0
-16 4 -14 8 3 4 9 8 14 8 5 0 11 -4 14 -8z m-483 -45 c-10 -9 -11 -8 -5 6 3
10 9 15 12 12 3 -3 0 -11 -7 -18z m-211 7 c0 -8 -19 -13 -24 -6 -3 5 1 9 9 9
8 0 15 -2 15 -3z m1054 -2 c3 -5 -1 -9 -9 -9 -8 0 -12 4 -9 9 3 4 7 8 9 8 2 0
6 -4 9 -8z m376 -22 c0 -5 -2 -10 -4 -10 -3 0 -8 5 -11 10 -3 6 -1 10 4 10 6
0 11 -4 11 -10z m-95 -40 c3 -6 -1 -7 -9 -4 -18 7 -21 14 -7 14 6 0 13 -4 16
-10z m-605 -4 c0 -2 -8 -10 -17 -17 -16 -13 -17 -12 -4 4 13 16 21 21 21 13z
m-700 -36 c0 -5 -2 -10 -4 -10 -3 0 -8 5 -11 10 -3 6 -1 10 4 10 6 0 11 -4 11
-10z m1080 0 c0 -5 -5 -10 -11 -10 -5 0 -7 5 -4 10 3 6 8 10 11 10 2 0 4 -4 4
-10z m-820 -4 c0 -2 -8 -10 -17 -17 -16 -13 -17 -12 -4 4 13 16 21 21 21 13z
m678 -21 c-3 -3 -9 2 -12 12 -6 14 -5 15 5 6 7 -7 10 -15 7 -18z m-898 5 c0
-5 -5 -10 -11 -10 -5 0 -7 5 -4 10 3 6 8 10 11 10 2 0 4 -4 4 -10z m295 1 c3
-5 2 -12 -3 -15 -5 -3 -9 1 -9 9 0 17 3 19 12 6z m356 -8 c13 -16 12 -17 -3
-4 -10 7 -18 15 -18 17 0 8 8 3 21 -13z"/>
</g>
</svg>
